<?xml version="1.0" encoding="UTF-8"?>
<!DOCTYPE svg PUBLIC "-//W3C//DTD SVG 1.1//EN" "http://www.w3.org/Graphics/SVG/1.1/DTD/svg11.dtd">
<svg xmlns="http://www.w3.org/2000/svg" version="1.1" width="140px" height="140px" style="shape-rendering:geometricPrecision; text-rendering:geometricPrecision; image-rendering:optimizeQuality; fill-rule:evenodd; clip-rule:evenodd" xmlns:xlink="http://www.w3.org/1999/xlink">
<g><path style="opacity:0.565" fill="#253a10" d="M 79.5,6.5 C 81.9664,5.36594 84.633,5.19927 87.5,6C 88.3366,7.01127 88.67,8.17793 88.5,9.5C 85.0977,9.34243 81.7644,9.67577 78.5,10.5C 80.9243,9.01688 83.591,7.85021 86.5,7C 84.1902,6.50335 81.8568,6.33669 79.5,6.5 Z"/></g>
<g><path style="opacity:1" fill="#748a3d" d="M 79.5,6.5 C 81.8568,6.33669 84.1902,6.50335 86.5,7C 83.591,7.85021 80.9243,9.01688 78.5,10.5C 74.8333,10.8333 72.8333,12.8333 72.5,16.5C 71.209,16.7373 70.209,16.404 69.5,15.5C 70.9467,10.3859 74.28,7.38594 79.5,6.5 Z"/></g>
<g><path style="opacity:0.196" fill="#2c3716" d="M 78.5,10.5 C 76.7299,11.764 75.0632,13.264 73.5,15C 75.0581,15.21 76.3915,15.71 77.5,16.5C 76.1667,16.5 74.8333,16.5 73.5,16.5C 73.1667,16.5 72.8333,16.5 72.5,16.5C 72.8333,12.8333 74.8333,10.8333 78.5,10.5 Z"/></g>
<g><path style="opacity:1" fill="#1b360c" d="M 77.5,16.5 C 80.8291,16.2153 83.8291,16.8819 86.5,18.5C 85.448,18.3505 84.448,18.5172 83.5,19C 88.433,21.4062 91.0997,25.2396 91.5,30.5C 89.8338,28.8132 88.5005,26.8132 87.5,24.5C 86.8333,23.1667 86.1667,23.1667 85.5,24.5C 87.7136,29.6692 89.3803,35.0025 90.5,40.5C 88.7159,38.0351 87.3826,35.3684 86.5,32.5C 86.5,32.1667 86.5,31.8333 86.5,31.5C 85.1103,27.8413 83.6103,24.1746 82,20.5C 81.2917,19.6195 80.4584,18.9528 79.5,18.5C 78.5,18.1667 77.8333,17.5 77.5,16.5 Z"/></g>
<g><path style="opacity:1" fill="#57812b" d="M 54.5,18.5 C 57.2476,18.4017 57.9143,19.4017 56.5,21.5C 51.3598,23.7632 48.6931,27.7632 48.5,33.5C 47.8333,33.5 47.5,33.8333 47.5,34.5C 47.1667,34.5 46.8333,34.5 46.5,34.5C 47.4127,31.7325 47.746,29.0658 47.5,26.5C 47.0431,25.7025 46.3764,25.3691 45.5,25.5C 48.681,23.4083 51.681,21.075 54.5,18.5 Z"/></g>
<g><path style="opacity:1" fill="#192d0f" d="M 64.5,16.5 C 64.5,16.8333 64.5,17.1667 64.5,17.5C 62.4756,20.1851 60.4756,22.8518 58.5,25.5C 50.0271,30.8265 49.3604,29.4932 56.5,21.5C 57.9143,19.4017 57.2476,18.4017 54.5,18.5C 57.5443,16.9886 60.8776,16.322 64.5,16.5 Z"/></g>
<g><path style="opacity:1" fill="#24460e" d="M 79.5,18.5 C 80.4584,18.9528 81.2917,19.6195 82,20.5C 83.6103,24.1746 85.1103,27.8413 86.5,31.5C 84.2284,29.7803 81.7284,28.4469 79,27.5C 78.5046,24.4686 78.6713,21.4686 79.5,18.5 Z"/></g>
<g><path style="opacity:1" fill="#3a5d1d" d="M 54.5,18.5 C 51.681,21.075 48.681,23.4083 45.5,25.5C 43.4727,26.8606 41.806,28.5273 40.5,30.5C 40.5,29.8333 40.1667,29.5 39.5,29.5C 39.631,28.7611 39.4643,28.0944 39,27.5C 38.3292,28.2524 37.4959,28.5858 36.5,28.5C 41.556,23.6348 47.556,20.3015 54.5,18.5 Z"/></g>
<g><path style="opacity:1" fill="#365d18" d="M 68.5,20.5 C 68.5,21.1667 68.5,21.8333 68.5,22.5C 67.5139,26.97 67.1805,31.6367 67.5,36.5C 66.8333,37.5 66.1667,38.5 65.5,39.5C 65.7892,35.8936 65.4558,32.3936 64.5,29C 65.7747,26.0458 67.108,23.2125 68.5,20.5 Z"/></g>
<g><path style="opacity:1" fill="#172d0e" d="M 64.5,16.5 C 65.9187,15.5489 67.5853,15.2155 69.5,15.5C 70.209,16.404 71.209,16.7373 72.5,16.5C 73.712,23.0192 73.0453,29.3525 70.5,35.5C 71.5,35.5 72.5,35.5 73.5,35.5C 73.634,37.2915 73.3007,38.9582 72.5,40.5C 70.9826,40.4894 69.8159,39.8228 69,38.5C 68.5006,33.1771 68.334,27.8437 68.5,22.5C 68.5,21.8333 68.5,21.1667 68.5,20.5C 68.5,19.1667 68.5,17.8333 68.5,16.5C 67.1667,16.5 65.8333,16.5 64.5,16.5 Z"/></g>
<g><path style="opacity:1" fill="#3c6018" d="M 86.5,18.5 C 87.609,18.5569 88.609,18.8902 89.5,19.5C 93.2635,22.386 96.5968,25.7193 99.5,29.5C 97.1016,29.2594 95.1016,29.9261 93.5,31.5C 93.1667,31.5 92.8333,31.5 92.5,31.5C 91.8333,31.5 91.5,31.1667 91.5,30.5C 91.0997,25.2396 88.433,21.4062 83.5,19C 84.448,18.5172 85.448,18.3505 86.5,18.5 Z"/></g>
<g><path style="opacity:1" fill="#406719" d="M 73.5,16.5 C 74.8333,16.5 76.1667,16.5 77.5,16.5C 77.8333,17.5 78.5,18.1667 79.5,18.5C 78.6713,21.4686 78.5046,24.4686 79,27.5C 81.7284,28.4469 84.2284,29.7803 86.5,31.5C 86.5,31.8333 86.5,32.1667 86.5,32.5C 86.3597,36.5078 87.3597,40.1744 89.5,43.5C 89.0576,44.7387 88.3909,45.7387 87.5,46.5C 87.1667,46.5 86.8333,46.5 86.5,46.5C 86.6747,44.3792 86.3414,42.3792 85.5,40.5C 85.5871,37.2613 84.9205,34.2613 83.5,31.5C 81.5082,31.6715 79.8415,31.0049 78.5,29.5C 77.7025,29.9569 77.3691,30.6236 77.5,31.5C 76.5326,30.1938 75.1993,29.5271 73.5,29.5C 74.0114,26.9716 74.6781,24.4716 75.5,22C 75.0457,20.0614 74.379,18.228 73.5,16.5 Z"/></g>
<g><path style="opacity:1" fill="#273d15" d="M 89.5,19.5 C 94.8266,21.1588 99.4933,23.8255 103.5,27.5C 102.153,26.9717 100.819,26.805 99.5,27C 102.076,30.0628 104.409,33.2295 106.5,36.5C 105.957,36.56 105.624,36.8933 105.5,37.5C 106.456,39.0754 107.123,40.742 107.5,42.5C 105.059,40.9255 103.893,38.5921 104,35.5C 103.623,34.0577 102.79,33.0577 101.5,32.5C 100.833,31.5 100.167,30.5 99.5,29.5C 96.5968,25.7193 93.2635,22.386 89.5,19.5 Z"/></g>
<g><path style="opacity:0.612" fill="#16210a" d="M 104.5,27.5 C 107.573,29.5691 109.906,32.2358 111.5,35.5C 108.427,33.4309 106.094,30.7642 104.5,27.5 Z"/></g>
<g><path style="opacity:1" fill="#2a4320" d="M 56.5,21.5 C 49.3604,29.4932 50.0271,30.8265 58.5,25.5C 58.189,29.1702 56.5223,32.1702 53.5,34.5C 52.6667,34.8333 51.8333,35.1667 51,35.5C 49.6244,35.3158 48.7911,34.6491 48.5,33.5C 48.6931,27.7632 51.3598,23.7632 56.5,21.5 Z"/></g>
<g><path style="opacity:1" fill="#47691e" d="M 99.5,29.5 C 100.167,30.5 100.833,31.5 101.5,32.5C 101.5,34.1667 101.5,35.8333 101.5,37.5C 100.883,37.6107 100.383,37.944 100,38.5C 96.9581,33.1879 95.7914,33.8546 96.5,40.5C 95.9534,37.3935 94.9534,34.3935 93.5,31.5C 95.1016,29.9261 97.1016,29.2594 99.5,29.5 Z"/></g>
<g><path style="opacity:1" fill="#4d6c33" d="M 64.5,17.5 C 63.8186,22.2267 62.8186,26.8933 61.5,31.5C 61.6207,32.8945 61.954,34.2278 62.5,35.5C 62.0431,36.2975 61.3764,36.6309 60.5,36.5C 58.7403,33.8482 56.407,34.0149 53.5,37C 51.5273,37.4955 49.5273,37.6621 47.5,37.5C 47.5,36.5 47.5,35.5 47.5,34.5C 47.5,33.8333 47.8333,33.5 48.5,33.5C 48.7911,34.6491 49.6244,35.3158 51,35.5C 51.8333,35.1667 52.6667,34.8333 53.5,34.5C 56.5223,32.1702 58.189,29.1702 58.5,25.5C 60.4756,22.8518 62.4756,20.1851 64.5,17.5 Z"/></g>
<g><path style="opacity:1" fill="#527c1f" d="M 85.5,40.5 C 83.4017,41.9143 82.4017,41.2476 82.5,38.5C 81.1779,38.67 80.0113,38.3366 79,37.5C 78.8091,35.2922 78.3091,33.2922 77.5,31.5C 77.3691,30.6236 77.7025,29.9569 78.5,29.5C 79.8415,31.0049 81.5082,31.6715 83.5,31.5C 84.9205,34.2613 85.5871,37.2613 85.5,40.5 Z"/></g>
<g><path style="opacity:1" fill="#224211" d="M 72.5,16.5 C 72.8333,16.5 73.1667,16.5 73.5,16.5C 74.379,18.228 75.0457,20.0614 75.5,22C 74.6781,24.4716 74.0114,26.9716 73.5,29.5C 75.0867,32.9187 75.7533,36.5854 75.5,40.5C 74.5,40.5 73.5,40.5 72.5,40.5C 73.3007,38.9582 73.634,37.2915 73.5,35.5C 72.5,35.5 71.5,35.5 70.5,35.5C 73.0453,29.3525 73.712,23.0192 72.5,16.5 Z"/></g>
<g><path style="opacity:1" fill="#162e0d" d="M 91.5,30.5 C 91.5,31.1667 91.8333,31.5 92.5,31.5C 92.7647,36.8994 94.098,41.8994 96.5,46.5C 96.8076,48.924 96.4742,51.2573 95.5,53.5C 93.6879,50.9451 92.3546,48.2784 91.5,45.5C 90.962,43.8828 90.6287,42.2161 90.5,40.5C 89.3803,35.0025 87.7136,29.6692 85.5,24.5C 86.1667,23.1667 86.8333,23.1667 87.5,24.5C 88.5005,26.8132 89.8338,28.8132 91.5,30.5 Z"/></g>
<g><path style="opacity:1" fill="#3d591c" d="M 103.5,27.5 C 103.833,27.5 104.167,27.5 104.5,27.5C 106.094,30.7642 108.427,33.4309 111.5,35.5C 111.5,36.1667 111.5,36.8333 111.5,37.5C 110.35,36.1498 109.683,36.3164 109.5,38C 110.233,39.7659 110.567,41.5992 110.5,43.5C 109.172,41.2067 107.839,38.8733 106.5,36.5C 104.409,33.2295 102.076,30.0628 99.5,27C 100.819,26.805 102.153,26.9717 103.5,27.5 Z"/></g>
<g><path style="opacity:1" fill="#23450e" d="M 92.5,31.5 C 92.8333,31.5 93.1667,31.5 93.5,31.5C 94.9534,34.3935 95.9534,37.3935 96.5,40.5C 96.5,42.5 96.5,44.5 96.5,46.5C 94.098,41.8994 92.7647,36.8994 92.5,31.5 Z"/></g>
<g><path style="opacity:1" fill="#5f8930" d="M 64.5,16.5 C 65.8333,16.5 67.1667,16.5 68.5,16.5C 68.5,17.8333 68.5,19.1667 68.5,20.5C 67.108,23.2125 65.7747,26.0458 64.5,29C 65.4558,32.3936 65.7892,35.8936 65.5,39.5C 65.5,40.1667 65.5,40.8333 65.5,41.5C 64.7777,42.5511 63.7777,43.2178 62.5,43.5C 62.9465,40.9899 62.2798,38.9899 60.5,37.5C 60.5,37.1667 60.5,36.8333 60.5,36.5C 61.3764,36.6309 62.0431,36.2975 62.5,35.5C 61.954,34.2278 61.6207,32.8945 61.5,31.5C 62.8186,26.8933 63.8186,22.2267 64.5,17.5C 64.5,17.1667 64.5,16.8333 64.5,16.5 Z"/></g>
<g><path style="opacity:0.843" fill="#2b4813" d="M 36.5,28.5 C 33.9118,31.988 31.0785,35.3213 28,38.5C 25.8977,42.3716 24.0644,46.3716 22.5,50.5C 21.5,49.1667 20.5,49.1667 19.5,50.5C 22.9649,41.38 28.6316,34.0466 36.5,28.5 Z"/></g>
<g><path style="opacity:1" fill="#6e8f5e" d="M 46.5,34.5 C 46.8333,34.5 47.1667,34.5 47.5,34.5C 47.5,35.5 47.5,36.5 47.5,37.5C 49.5273,37.6621 51.5273,37.4955 53.5,37C 56.407,34.0149 58.7403,33.8482 60.5,36.5C 60.5,36.8333 60.5,37.1667 60.5,37.5C 59.063,38.7221 57.563,38.7221 56,37.5C 54.3336,38.3479 52.8336,39.3479 51.5,40.5C 50.9032,41.1386 50.0698,41.472 49,41.5C 47.6244,41.3158 46.7911,40.6491 46.5,39.5C 46.5,37.8333 46.5,36.1667 46.5,34.5 Z"/></g>
<g><path style="opacity:1" fill="#528128" d="M 39.5,33.5 C 37.5078,38.4629 35.8412,43.4629 34.5,48.5C 33.6993,46.9582 33.366,45.2915 33.5,43.5C 33.5,42.8333 33.5,42.1667 33.5,41.5C 34.6084,38.2059 36.6084,35.5392 39.5,33.5 Z"/></g>
<g><path style="opacity:1" fill="#2f4921" d="M 39.5,29.5 C 40.1667,29.5 40.5,29.8333 40.5,30.5C 39.8902,31.391 39.5569,32.391 39.5,33.5C 36.6084,35.5392 34.6084,38.2059 33.5,41.5C 33.0623,40.4937 32.3957,40.4937 31.5,41.5C 33.7485,37.2458 36.4152,33.2458 39.5,29.5 Z"/></g>
<g><path style="opacity:1" fill="#75a33e" d="M 45.5,25.5 C 46.3764,25.3691 47.0431,25.7025 47.5,26.5C 47.746,29.0658 47.4127,31.7325 46.5,34.5C 46.5,36.1667 46.5,37.8333 46.5,39.5C 46.1667,39.5 45.8333,39.5 45.5,39.5C 45.6309,38.6236 45.2975,37.9569 44.5,37.5C 39.9712,40.1572 38.3045,44.1572 39.5,49.5C 38.2502,49.4226 37.4169,48.756 37,47.5C 36.9206,50.8306 36.0873,53.8306 34.5,56.5C 33.8826,56.6107 33.3826,56.944 33,57.5C 32.6667,61.1667 32.3333,64.8333 32,68.5C 31.6174,69.056 31.1174,69.3893 30.5,69.5C 30.9039,63.973 31.9039,58.6397 33.5,53.5C 33.6287,51.7839 33.962,50.1172 34.5,48.5C 35.8412,43.4629 37.5078,38.4629 39.5,33.5C 39.5569,32.391 39.8902,31.391 40.5,30.5C 41.806,28.5273 43.4727,26.8606 45.5,25.5 Z"/></g>
<g><path style="opacity:1" fill="#82ac5f" d="M 60.5,37.5 C 62.2798,38.9899 62.9465,40.9899 62.5,43.5C 61.8529,44.2739 61.5195,45.2739 61.5,46.5C 62.5289,49.5145 63.5289,52.5145 64.5,55.5C 64.1667,55.5 63.8333,55.5 63.5,55.5C 63.6495,54.448 63.4828,53.448 63,52.5C 62.3292,53.2524 61.4959,53.5858 60.5,53.5C 60.5328,49.1311 60.1995,44.7978 59.5,40.5C 58.1667,40.5 56.8333,40.5 55.5,40.5C 54.1667,40.5 52.8333,40.5 51.5,40.5C 52.8336,39.3479 54.3336,38.3479 56,37.5C 57.563,38.7221 59.063,38.7221 60.5,37.5 Z"/></g>
<g><path style="opacity:1" fill="#285310" d="M 73.5,29.5 C 75.1993,29.5271 76.5326,30.1938 77.5,31.5C 77.5668,33.4008 77.2335,35.2341 76.5,37C 78.7058,38.2502 80.0391,40.0835 80.5,42.5C 80.5,43.1667 80.5,43.8333 80.5,44.5C 79.7321,45.2625 79.2321,46.2625 79,47.5C 77.4263,46.0158 76.093,44.3492 75,42.5C 74.2828,43.0442 73.7828,43.7109 73.5,44.5C 72.5655,43.4324 72.2322,42.099 72.5,40.5C 73.5,40.5 74.5,40.5 75.5,40.5C 75.7533,36.5854 75.0867,32.9187 73.5,29.5 Z"/></g>
<g><path style="opacity:1" fill="#49731b" d="M 77.5,31.5 C 78.3091,33.2922 78.8091,35.2922 79,37.5C 80.0113,38.3366 81.1779,38.67 82.5,38.5C 82.4017,41.2476 83.4017,41.9143 85.5,40.5C 86.3414,42.3792 86.6747,44.3792 86.5,46.5C 85.71,45.3915 85.21,44.0581 85,42.5C 84.8214,45.5535 84.3214,48.5535 83.5,51.5C 83.0935,48.0609 82.0935,45.0609 80.5,42.5C 80.0391,40.0835 78.7058,38.2502 76.5,37C 77.2335,35.2341 77.5668,33.4008 77.5,31.5 Z"/></g>
<g><path style="opacity:1" fill="#253f1b" d="M 68.5,22.5 C 68.334,27.8437 68.5006,33.1771 69,38.5C 69.8159,39.8228 70.9826,40.4894 72.5,40.5C 72.2322,42.099 72.5655,43.4324 73.5,44.5C 73.2525,46.8583 73.9192,48.8583 75.5,50.5C 75.5,50.8333 75.5,51.1667 75.5,51.5C 74.1667,51.5 72.8333,51.5 71.5,51.5C 71.6582,54.5455 70.9915,57.3788 69.5,60C 70.7472,61.4936 70.7472,62.9936 69.5,64.5C 68.7492,63.624 68.2492,62.624 68,61.5C 67.6174,62.056 67.1174,62.3893 66.5,62.5C 66.5,62.1667 66.5,61.8333 66.5,61.5C 66.5,61.1667 66.5,60.8333 66.5,60.5C 67.4558,58.1105 68.4558,55.6105 69.5,53C 67.7589,47.644 67.0923,42.144 67.5,36.5C 67.1805,31.6367 67.5139,26.97 68.5,22.5 Z"/></g>
<g><path style="opacity:1" fill="#3c5919" d="M 111.5,37.5 C 115.742,41.9842 118.409,47.3175 119.5,53.5C 118.883,53.3893 118.383,53.056 118,52.5C 117.502,55.8168 117.335,59.1501 117.5,62.5C 116.681,59.6946 116.181,56.6946 116,53.5C 115.28,51.9443 114.113,50.9443 112.5,50.5C 111.985,48.1055 111.319,45.7722 110.5,43.5C 110.567,41.5992 110.233,39.7659 109.5,38C 109.683,36.3164 110.35,36.1498 111.5,37.5 Z"/></g>
<g><path style="opacity:1" fill="#a8d397" d="M 45.5,39.5 C 45.8333,39.5 46.1667,39.5 46.5,39.5C 46.7911,40.6491 47.6244,41.3158 49,41.5C 50.0698,41.472 50.9032,41.1386 51.5,40.5C 52.8333,40.5 54.1667,40.5 55.5,40.5C 55.5,41.5 55.5,42.5 55.5,43.5C 54.5423,44.9616 53.3756,46.2949 52,47.5C 51.3603,49.265 51.5269,50.9317 52.5,52.5C 52.5,52.8333 52.5,53.1667 52.5,53.5C 49.1667,53.5 45.8333,53.5 42.5,53.5C 42.5,52.5 42.5,51.5 42.5,50.5C 43.877,46.9546 44.877,43.288 45.5,39.5 Z"/></g>
<g><path style="opacity:1" fill="#5b854a" d="M 65.5,41.5 C 65.5668,43.4008 65.2335,45.2341 64.5,47C 65.6551,51.4304 66.3218,55.9304 66.5,60.5C 66.5,60.8333 66.5,61.1667 66.5,61.5C 66.1667,61.5 65.8333,61.5 65.5,61.5C 65.7947,59.2646 65.4614,57.2646 64.5,55.5C 63.5289,52.5145 62.5289,49.5145 61.5,46.5C 61.5195,45.2739 61.8529,44.2739 62.5,43.5C 63.7777,43.2178 64.7777,42.5511 65.5,41.5 Z"/></g>
<g><path style="opacity:1" fill="#567726" d="M 101.5,37.5 C 102.695,37.8656 103.361,38.699 103.5,40C 102.633,43.1052 102.299,46.2719 102.5,49.5C 101.883,49.3893 101.383,49.056 101,48.5C 100.51,49.7932 100.343,51.1266 100.5,52.5C 99.2719,51.6935 98.2719,50.6935 97.5,49.5C 97.7373,48.209 97.404,47.209 96.5,46.5C 96.5,44.5 96.5,42.5 96.5,40.5C 95.7914,33.8546 96.9581,33.1879 100,38.5C 100.383,37.944 100.883,37.6107 101.5,37.5 Z"/></g>
<g><path style="opacity:1" fill="#63912a" d="M 39.5,29.5 C 36.4152,33.2458 33.7485,37.2458 31.5,41.5C 30.0937,41.9731 29.427,42.9731 29.5,44.5C 27.2475,44.9156 25.7475,46.249 25,48.5C 24.8255,53.3514 24.3255,58.0181 23.5,62.5C 24.0356,59.3019 23.369,56.6353 21.5,54.5C 21.4326,53.0413 21.7659,51.7079 22.5,50.5C 24.0644,46.3716 25.8977,42.3716 28,38.5C 31.0785,35.3213 33.9118,31.988 36.5,28.5C 37.4959,28.5858 38.3292,28.2524 39,27.5C 39.4643,28.0944 39.631,28.7611 39.5,29.5 Z"/></g>
<g><path style="opacity:1" fill="#a3d273" d="M 45.5,39.5 C 44.877,43.288 43.877,46.9546 42.5,50.5C 39.4952,56.1565 38.4952,55.8231 39.5,49.5C 38.3045,44.1572 39.9712,40.1572 44.5,37.5C 45.2975,37.9569 45.6309,38.6236 45.5,39.5 Z"/></g>
<g><path style="opacity:1" fill="#325b15" d="M 86.5,32.5 C 87.3826,35.3684 88.7159,38.0351 90.5,40.5C 90.6287,42.2161 90.962,43.8828 91.5,45.5C 90.0298,47.1595 89.3631,49.1595 89.5,51.5C 89.9657,54.4922 90.2991,57.4922 90.5,60.5C 90.5,60.8333 90.5,61.1667 90.5,61.5C 90.1667,61.5 89.8333,61.5 89.5,61.5C 89.7062,58.5049 89.0395,55.8383 87.5,53.5C 87.5,51.1667 87.5,48.8333 87.5,46.5C 88.3909,45.7387 89.0576,44.7387 89.5,43.5C 87.3597,40.1744 86.3597,36.5078 86.5,32.5 Z"/></g>
<g><path style="opacity:1" fill="#325d1e" d="M 33.5,43.5 C 33.366,45.2915 33.6993,46.9582 34.5,48.5C 33.962,50.1172 33.6287,51.7839 33.5,53.5C 32.5416,53.9528 31.7083,54.6195 31,55.5C 30.2888,62.1556 29.7888,68.8223 29.5,75.5C 28.8333,75.5 28.1667,75.5 27.5,75.5C 28.5658,68.5379 29.3991,61.5379 30,54.5C 30.4162,50.4711 31.5829,46.8044 33.5,43.5 Z"/></g>
<g><path style="opacity:1" fill="#3c5f18" d="M 101.5,32.5 C 102.79,33.0577 103.623,34.0577 104,35.5C 103.893,38.5921 105.059,40.9255 107.5,42.5C 107.5,42.8333 107.5,43.1667 107.5,43.5C 106.232,48.7817 107.065,53.7817 110,58.5C 110.499,62.8206 110.666,67.1539 110.5,71.5C 110.672,72.4916 110.338,73.1583 109.5,73.5C 109.477,68.1259 108.977,62.7926 108,57.5C 105.946,54.9528 104.113,52.2861 102.5,49.5C 102.299,46.2719 102.633,43.1052 103.5,40C 103.361,38.699 102.695,37.8656 101.5,37.5C 101.5,35.8333 101.5,34.1667 101.5,32.5 Z"/></g>
<g><path style="opacity:1" fill="#1d3911" d="M 91.5,45.5 C 92.3546,48.2784 93.6879,50.9451 95.5,53.5C 96.4742,51.2573 96.8076,48.924 96.5,46.5C 97.404,47.209 97.7373,48.209 97.5,49.5C 97.6349,52.4175 96.9682,55.0842 95.5,57.5C 94.2921,56.7659 92.9587,56.4326 91.5,56.5C 91.4326,57.9587 91.7659,59.2921 92.5,60.5C 91.8333,60.5 91.1667,60.5 90.5,60.5C 90.2991,57.4922 89.9657,54.4922 89.5,51.5C 89.3631,49.1595 90.0298,47.1595 91.5,45.5 Z"/></g>
<g><path style="opacity:1" fill="#2a3e14" d="M 111.5,35.5 C 118.293,42.0744 122.793,50.0744 125,59.5C 126.493,66.3012 126.66,72.9678 125.5,79.5C 125.662,77.4727 125.495,75.4727 125,73.5C 124.617,72.944 124.117,72.6107 123.5,72.5C 123.552,70.0971 123.219,67.7638 122.5,65.5C 122.615,61.1116 121.615,57.1116 119.5,53.5C 118.409,47.3175 115.742,41.9842 111.5,37.5C 111.5,36.8333 111.5,36.1667 111.5,35.5 Z"/></g>
<g><path style="opacity:1" fill="#44781c" d="M 29.5,44.5 C 28.2063,48.7579 27.2063,53.0913 26.5,57.5C 25.816,60.5917 24.816,63.5917 23.5,66.5C 23.5,65.1667 23.5,63.8333 23.5,62.5C 24.3255,58.0181 24.8255,53.3514 25,48.5C 25.7475,46.249 27.2475,44.9156 29.5,44.5 Z"/></g>
<g><path style="opacity:1" fill="#273522" d="M 33.5,41.5 C 33.5,42.1667 33.5,42.8333 33.5,43.5C 31.5829,46.8044 30.4162,50.4711 30,54.5C 29.3991,61.5379 28.5658,68.5379 27.5,75.5C 27.1667,75.5 26.8333,75.5 26.5,75.5C 26.1667,75.5 25.8333,75.5 25.5,75.5C 25.701,69.491 26.0343,63.491 26.5,57.5C 28.7672,52.4539 30.4339,47.1206 31.5,41.5C 32.3957,40.4937 33.0623,40.4937 33.5,41.5 Z"/></g>
<g><path style="opacity:1" fill="#b8e691" d="M 55.5,43.5 C 56.4584,43.9528 57.2917,44.6195 58,45.5C 58.8901,49.3818 58.3901,53.0485 56.5,56.5C 55.6761,54.5794 54.3428,53.246 52.5,52.5C 51.5269,50.9317 51.3603,49.265 52,47.5C 53.3756,46.2949 54.5423,44.9616 55.5,43.5 Z"/></g>
<g><path style="opacity:1" fill="#3a572f" d="M 67.5,36.5 C 67.0923,42.144 67.7589,47.644 69.5,53C 68.4558,55.6105 67.4558,58.1105 66.5,60.5C 66.3218,55.9304 65.6551,51.4304 64.5,47C 65.2335,45.2341 65.5668,43.4008 65.5,41.5C 65.5,40.8333 65.5,40.1667 65.5,39.5C 66.1667,38.5 66.8333,37.5 67.5,36.5 Z"/></g>
<g><path style="opacity:1" fill="#578120" d="M 80.5,42.5 C 82.0935,45.0609 83.0935,48.0609 83.5,51.5C 84.3214,48.5535 84.8214,45.5535 85,42.5C 85.21,44.0581 85.71,45.3915 86.5,46.5C 86.8333,46.5 87.1667,46.5 87.5,46.5C 87.5,48.8333 87.5,51.1667 87.5,53.5C 86.2436,53.9038 85.0769,54.5705 84,55.5C 83.0546,55.0946 82.3879,54.428 82,53.5C 81.5831,54.756 80.7498,55.4226 79.5,55.5C 80.2436,51.8815 80.577,48.2148 80.5,44.5C 80.5,43.8333 80.5,43.1667 80.5,42.5 Z"/></g>
<g><path style="opacity:1" fill="#2b5017" d="M 31.5,41.5 C 30.4339,47.1206 28.7672,52.4539 26.5,57.5C 27.2063,53.0913 28.2063,48.7579 29.5,44.5C 29.427,42.9731 30.0937,41.9731 31.5,41.5 Z"/></g>
<g><path style="opacity:1" fill="#5e7d2a" d="M 102.5,49.5 C 104.113,52.2861 105.946,54.9528 108,57.5C 108.977,62.7926 109.477,68.1259 109.5,73.5C 109.167,73.5 108.833,73.5 108.5,73.5C 108.62,69.9582 108.286,66.4582 107.5,63C 105.904,60.936 104.404,58.7694 103,56.5C 102.281,60.1454 101.781,63.8121 101.5,67.5C 100.275,66.8478 99.6083,65.6811 99.5,64C 100.205,60.1958 100.538,56.3625 100.5,52.5C 100.343,51.1266 100.51,49.7932 101,48.5C 101.383,49.056 101.883,49.3893 102.5,49.5 Z"/></g>
<g><path style="opacity:1" fill="#254610" d="M 107.5,43.5 C 108.117,43.6107 108.617,43.944 109,44.5C 110.31,48.0704 111.143,51.737 111.5,55.5C 111.5,60.8333 111.5,66.1667 111.5,71.5C 111.167,71.5 110.833,71.5 110.5,71.5C 110.666,67.1539 110.499,62.8206 110,58.5C 107.065,53.7817 106.232,48.7817 107.5,43.5 Z"/></g>
<g><path style="opacity:1" fill="#8bb07e" d="M 42.5,53.5 C 45.8333,53.5 49.1667,53.5 52.5,53.5C 52.5,53.8333 52.5,54.1667 52.5,54.5C 52.5674,55.9587 52.2341,57.2921 51.5,58.5C 48.7387,57.0795 45.7387,56.4129 42.5,56.5C 42.5,55.5 42.5,54.5 42.5,53.5 Z"/></g>
<g><path style="opacity:1" fill="#a8ce78" d="M 55.5,40.5 C 56.8333,40.5 58.1667,40.5 59.5,40.5C 60.1995,44.7978 60.5328,49.1311 60.5,53.5C 60.5,54.8333 60.5,56.1667 60.5,57.5C 58.867,58.9454 57.0337,60.2787 55,61.5C 54.79,59.9419 54.29,58.6085 53.5,57.5C 53.7373,56.209 53.404,55.209 52.5,54.5C 52.5,54.1667 52.5,53.8333 52.5,53.5C 52.5,53.1667 52.5,52.8333 52.5,52.5C 54.3428,53.246 55.6761,54.5794 56.5,56.5C 58.3901,53.0485 58.8901,49.3818 58,45.5C 57.2917,44.6195 56.4584,43.9528 55.5,43.5C 55.5,42.5 55.5,41.5 55.5,40.5 Z"/></g>
<g><path style="opacity:1" fill="#698c2e" d="M 87.5,53.5 C 89.0395,55.8383 89.7062,58.5049 89.5,61.5C 89.8235,68.0221 89.4902,74.3554 88.5,80.5C 88.5,78.5 88.5,76.5 88.5,74.5C 88.5,72.8333 88.5,71.1667 88.5,69.5C 88.8226,65.774 88.4892,62.1073 87.5,58.5C 85.6254,59.8361 84.2921,59.3361 83.5,57C 81.892,56.342 80.7253,56.842 80,58.5C 80.4922,61.319 80.3256,63.9856 79.5,66.5C 79.7678,64.901 79.4345,63.5676 78.5,62.5C 78.448,60.0971 78.7814,57.7638 79.5,55.5C 80.7498,55.4226 81.5831,54.756 82,53.5C 82.3879,54.428 83.0546,55.0946 84,55.5C 85.0769,54.5705 86.2436,53.9038 87.5,53.5 Z"/></g>
<g><path style="opacity:1" fill="#162c0e" d="M 111.5,55.5 C 112.759,61.3663 113.759,67.3663 114.5,73.5C 113.5,73.5 112.5,73.5 111.5,73.5C 111.5,72.8333 111.5,72.1667 111.5,71.5C 111.5,66.1667 111.5,60.8333 111.5,55.5 Z"/></g>
<g><path style="opacity:1" fill="#93bb55" d="M 39.5,49.5 C 38.4952,55.8231 39.4952,56.1565 42.5,50.5C 42.5,51.5 42.5,52.5 42.5,53.5C 42.5,54.5 42.5,55.5 42.5,56.5C 41.5386,58.2646 41.2053,60.2646 41.5,62.5C 39.5621,60.7545 37.2287,59.7545 34.5,59.5C 34.5,58.5 34.5,57.5 34.5,56.5C 36.0873,53.8306 36.9206,50.8306 37,47.5C 37.4169,48.756 38.2502,49.4226 39.5,49.5 Z"/></g>
<g><path style="opacity:1" fill="#6b8f5e" d="M 42.5,56.5 C 45.7387,56.4129 48.7387,57.0795 51.5,58.5C 51.5,59.8333 51.5,61.1667 51.5,62.5C 47.782,59.6281 44.782,60.2947 42.5,64.5C 42.5,63.8333 42.1667,63.5 41.5,63.5C 41.5,63.1667 41.5,62.8333 41.5,62.5C 41.2053,60.2646 41.5386,58.2646 42.5,56.5 Z"/></g>
<g><path style="opacity:1" fill="#203a13" d="M 112.5,50.5 C 114.113,50.9443 115.28,51.9443 116,53.5C 116.181,56.6946 116.681,59.6946 117.5,62.5C 117.5,68.5 117.5,74.5 117.5,80.5C 116.076,78.4855 115.41,76.1522 115.5,73.5C 115.972,65.6193 114.972,57.9527 112.5,50.5 Z"/></g>
<g><path style="opacity:1" fill="#506b29" d="M 119.5,53.5 C 121.615,57.1116 122.615,61.1116 122.5,65.5C 121.21,64.9423 120.377,63.9423 120,62.5C 118.974,72.1636 118.141,81.8303 117.5,91.5C 116.833,92.8333 116.167,94.1667 115.5,95.5C 116.587,90.5667 117.253,85.5667 117.5,80.5C 117.5,74.5 117.5,68.5 117.5,62.5C 117.335,59.1501 117.502,55.8168 118,52.5C 118.383,53.056 118.883,53.3893 119.5,53.5 Z"/></g>
<g><path style="opacity:1" fill="#203a16" d="M 75.5,51.5 C 76.6946,51.8656 77.3613,52.699 77.5,54C 75.2372,59.2319 73.9038,64.7319 73.5,70.5C 71.5891,70.4257 70.4224,69.4257 70,67.5C 69,68.8333 68,68.8333 67,67.5C 66.5065,65.8659 66.3398,64.1992 66.5,62.5C 67.1174,62.3893 67.6174,62.056 68,61.5C 68.2492,62.624 68.7492,63.624 69.5,64.5C 70.7472,62.9936 70.7472,61.4936 69.5,60C 70.9915,57.3788 71.6582,54.5455 71.5,51.5C 72.8333,51.5 74.1667,51.5 75.5,51.5 Z"/></g>
<g><path style="opacity:1" fill="#4e7241" d="M 51.5,62.5 C 51.9629,65.4824 52.2962,68.4824 52.5,71.5C 51.5,72.1667 50.5,72.8333 49.5,73.5C 49.3573,71.7376 49.6906,70.0709 50.5,68.5C 50.1924,67.6919 49.6924,67.0253 49,66.5C 48,67.8333 47,67.8333 46,66.5C 45.5017,69.8168 45.335,73.1501 45.5,76.5C 44.8333,76.1667 44.1667,75.8333 43.5,75.5C 43.0578,71.8455 42.7244,68.1788 42.5,64.5C 44.782,60.2947 47.782,59.6281 51.5,62.5 Z"/></g>
<g><path style="opacity:1" fill="#7e9c3e" d="M 88.5,69.5 C 87.5269,67.0521 87.1936,64.3854 87.5,61.5C 85.5,62.1667 83.5,62.8333 81.5,63.5C 81.3227,67.2343 81.6561,70.9009 82.5,74.5C 81.5,74.5 80.5,74.5 79.5,74.5C 79.5,71.8333 79.5,69.1667 79.5,66.5C 80.3256,63.9856 80.4922,61.319 80,58.5C 80.7253,56.842 81.892,56.342 83.5,57C 84.2921,59.3361 85.6254,59.8361 87.5,58.5C 88.4892,62.1073 88.8226,65.774 88.5,69.5 Z"/></g>
<g><path style="opacity:1" fill="#8ea44c" d="M 88.5,69.5 C 88.5,71.1667 88.5,72.8333 88.5,74.5C 86.5,74.5 84.5,74.5 82.5,74.5C 81.6561,70.9009 81.3227,67.2343 81.5,63.5C 83.5,62.8333 85.5,62.1667 87.5,61.5C 87.1936,64.3854 87.5269,67.0521 88.5,69.5 Z"/></g>
<g><path style="opacity:1" fill="#67832c" d="M 108.5,73.5 C 106.5,73.5 104.5,73.5 102.5,73.5C 102.167,71.5 101.833,69.5 101.5,67.5C 101.781,63.8121 102.281,60.1454 103,56.5C 104.404,58.7694 105.904,60.936 107.5,63C 108.286,66.4582 108.62,69.9582 108.5,73.5 Z"/></g>
<g><path style="opacity:1" fill="#6f9d52" d="M 52.5,54.5 C 53.404,55.209 53.7373,56.209 53.5,57.5C 54.194,62.2215 54.194,66.8882 53.5,71.5C 53.1667,71.5 52.8333,71.5 52.5,71.5C 52.2962,68.4824 51.9629,65.4824 51.5,62.5C 51.5,61.1667 51.5,59.8333 51.5,58.5C 52.2341,57.2921 52.5674,55.9587 52.5,54.5 Z"/></g>
<g><path style="opacity:1" fill="#97b651" d="M 63.5,55.5 C 62.5098,61.6446 62.1765,67.9779 62.5,74.5C 61.1001,73.9002 60.1001,72.9002 59.5,71.5C 60.3136,66.8809 60.6469,62.2142 60.5,57.5C 60.5,56.1667 60.5,54.8333 60.5,53.5C 61.4959,53.5858 62.3292,53.2524 63,52.5C 63.4828,53.448 63.6495,54.448 63.5,55.5 Z"/></g>
<g><path style="opacity:1" fill="#182116" d="M 106.5,36.5 C 107.839,38.8733 109.172,41.2067 110.5,43.5C 111.319,45.7722 111.985,48.1055 112.5,50.5C 114.972,57.9527 115.972,65.6193 115.5,73.5C 115.167,73.5 114.833,73.5 114.5,73.5C 113.759,67.3663 112.759,61.3663 111.5,55.5C 111.143,51.737 110.31,48.0704 109,44.5C 108.617,43.944 108.117,43.6107 107.5,43.5C 107.5,43.1667 107.5,42.8333 107.5,42.5C 107.123,40.742 106.456,39.0754 105.5,37.5C 105.624,36.8933 105.957,36.56 106.5,36.5 Z"/></g>
<g><path style="opacity:1" fill="#35581d" d="M 97.5,49.5 C 98.2719,50.6935 99.2719,51.6935 100.5,52.5C 100.538,56.3625 100.205,60.1958 99.5,64C 99.6083,65.6811 100.275,66.8478 101.5,67.5C 101.833,69.5 102.167,71.5 102.5,73.5C 103.589,77.0779 103.755,80.7446 103,84.5C 102.34,86.3237 101.173,87.657 99.5,88.5C 99.3975,85.7814 99.7308,83.1147 100.5,80.5C 100.547,78.9623 99.8799,77.9623 98.5,77.5C 99.1215,70.4697 98.1215,63.8031 95.5,57.5C 96.9682,55.0842 97.6349,52.4175 97.5,49.5 Z"/></g>
<g><path style="opacity:1" fill="#a1c252" d="M 34.5,59.5 C 37.2287,59.7545 39.5621,60.7545 41.5,62.5C 41.5,62.8333 41.5,63.1667 41.5,63.5C 40.8857,67.1352 40.5524,70.8019 40.5,74.5C 39.8333,74.1667 39.1667,73.8333 38.5,73.5C 38.6602,71.8008 38.4935,70.1341 38,68.5C 36.951,70.1066 35.451,70.7733 33.5,70.5C 33.5524,66.8019 33.8857,63.1352 34.5,59.5 Z"/></g>
<g><path style="opacity:1" fill="#a0be5a" d="M 53.5,57.5 C 54.29,58.6085 54.79,59.9419 55,61.5C 57.0337,60.2787 58.867,58.9454 60.5,57.5C 60.6469,62.2142 60.3136,66.8809 59.5,71.5C 58.0772,73.5449 56.0772,74.5449 53.5,74.5C 53.5,73.5 53.5,72.5 53.5,71.5C 54.194,66.8882 54.194,62.2215 53.5,57.5 Z"/></g>
<g><path style="opacity:1" fill="#2b4d1a" d="M 75.5,51.5 C 75.5,51.1667 75.5,50.8333 75.5,50.5C 76.5,50.5 77.5,50.5 78.5,50.5C 78.3173,54.9003 77.6506,59.2336 76.5,63.5C 77.8622,69.3335 76.8622,74.6668 73.5,79.5C 74.3482,81.4086 74.6816,83.4086 74.5,85.5C 74.1201,87.698 74.7868,89.3646 76.5,90.5C 76.8333,94.5 77.1667,98.5 77.5,102.5C 76.9301,98.8198 75.5967,96.1531 73.5,94.5C 73.5,92.5 73.5,90.5 73.5,88.5C 73.7161,84.5129 73.0495,80.6796 71.5,77C 72.6458,76.2406 73.6458,75.5739 74.5,75C 73.8524,73.5603 73.5191,72.0603 73.5,70.5C 73.9038,64.7319 75.2372,59.2319 77.5,54C 77.3613,52.699 76.6946,51.8656 75.5,51.5 Z"/></g>
<g><path style="opacity:1" fill="#39582f" d="M 49.5,73.5 C 47.8595,74.147 46.5261,75.147 45.5,76.5C 45.335,73.1501 45.5017,69.8168 46,66.5C 47,67.8333 48,67.8333 49,66.5C 49.6924,67.0253 50.1924,67.6919 50.5,68.5C 49.6906,70.0709 49.3573,71.7376 49.5,73.5 Z"/></g>
<g><path style="opacity:1" fill="#214016" d="M 65.5,61.5 C 65.8333,61.5 66.1667,61.5 66.5,61.5C 66.5,61.8333 66.5,62.1667 66.5,62.5C 66.3398,64.1992 66.5065,65.8659 67,67.5C 68,68.8333 69,68.8333 70,67.5C 70.4224,69.4257 71.5891,70.4257 73.5,70.5C 73.5191,72.0603 73.8524,73.5603 74.5,75C 73.6458,75.5739 72.6458,76.2406 71.5,77C 73.0495,80.6796 73.7161,84.5129 73.5,88.5C 72.6909,86.7078 72.1909,84.7078 72,82.5C 71.7216,83.4158 71.2216,84.0825 70.5,84.5C 70.8016,81.9407 70.4682,79.6074 69.5,77.5C 64.7091,73.1908 63.3758,67.8575 65.5,61.5 Z"/></g>
<g><path style="opacity:1" fill="#496b23" d="M 22.5,50.5 C 21.7659,51.7079 21.4326,53.0413 21.5,54.5C 18.3326,62.4917 17.6659,70.825 19.5,79.5C 18.7321,78.7375 18.2321,77.7375 18,76.5C 17.8195,79.6946 17.3195,82.6946 16.5,85.5C 13.7403,73.6413 14.7403,61.9746 19.5,50.5C 20.5,49.1667 21.5,49.1667 22.5,50.5 Z"/></g>
<g><path style="opacity:1" fill="#99bd4a" d="M 34.5,56.5 C 34.5,57.5 34.5,58.5 34.5,59.5C 33.8857,63.1352 33.5524,66.8019 33.5,70.5C 35.451,70.7733 36.951,70.1066 38,68.5C 38.4935,70.1341 38.6602,71.8008 38.5,73.5C 37.5178,74.1408 36.5178,74.8075 35.5,75.5C 34.1585,73.9951 32.4918,73.3285 30.5,73.5C 30.5,72.1667 30.5,70.8333 30.5,69.5C 31.1174,69.3893 31.6174,69.056 32,68.5C 32.3333,64.8333 32.6667,61.1667 33,57.5C 33.3826,56.944 33.8826,56.6107 34.5,56.5 Z"/></g>
<g><path style="opacity:1" fill="#2e5418" d="M 90.5,60.5 C 91.1667,60.5 91.8333,60.5 92.5,60.5C 92.1731,64.6929 93.1731,68.5263 95.5,72C 93.1641,76.848 92.1641,82.0147 92.5,87.5C 92.1667,87.5 91.8333,87.5 91.5,87.5C 91.4795,78.8184 91.1461,70.1517 90.5,61.5C 90.5,61.1667 90.5,60.8333 90.5,60.5 Z"/></g>
<g><path style="opacity:1" fill="#1a3311" d="M 95.5,57.5 C 98.1215,63.8031 99.1215,70.4697 98.5,77.5C 97.8826,77.3893 97.3826,77.056 97,76.5C 96.3848,78.1161 95.3848,79.4495 94,80.5C 93.51,81.7932 93.3433,83.1266 93.5,84.5C 93.5,86.1667 93.5,87.8333 93.5,89.5C 92.6618,89.1583 92.3284,88.4916 92.5,87.5C 92.1641,82.0147 93.1641,76.848 95.5,72C 93.1731,68.5263 92.1731,64.6929 92.5,60.5C 91.7659,59.2921 91.4326,57.9587 91.5,56.5C 92.9587,56.4326 94.2921,56.7659 95.5,57.5 Z"/></g>
<g><path style="opacity:1" fill="#254a16" d="M 26.5,57.5 C 26.0343,63.491 25.701,69.491 25.5,75.5C 25.5,79.8333 25.5,84.1667 25.5,88.5C 24.535,82.3416 23.8684,76.0082 23.5,69.5C 23.5,68.5 23.5,67.5 23.5,66.5C 24.816,63.5917 25.816,60.5917 26.5,57.5 Z"/></g>
<g><path style="opacity:1" fill="#698035" d="M 122.5,65.5 C 123.219,67.7638 123.552,70.0971 123.5,72.5C 124.218,76.9035 123.051,80.5702 120,83.5C 119.84,87.2875 119.174,90.9542 118,94.5C 117.517,93.552 117.351,92.552 117.5,91.5C 118.141,81.8303 118.974,72.1636 120,62.5C 120.377,63.9423 121.21,64.9423 122.5,65.5 Z"/></g>
<g><path style="opacity:1" fill="#96b14b" d="M 30.5,73.5 C 32.4918,73.3285 34.1585,73.9951 35.5,75.5C 36.5178,74.8075 37.5178,74.1408 38.5,73.5C 39.1667,73.8333 39.8333,74.1667 40.5,74.5C 40.578,77.2518 40.7446,79.9184 41,82.5C 39.3333,85.1667 37.6667,85.1667 36,82.5C 35.6582,84.6192 34.8249,84.9526 33.5,83.5C 31.3952,80.5917 30.3952,77.2583 30.5,73.5 Z"/></g>
<g><path style="opacity:1" fill="#3d661e" d="M 80.5,44.5 C 80.577,48.2148 80.2436,51.8815 79.5,55.5C 78.7814,57.7638 78.448,60.0971 78.5,62.5C 78.666,67.8437 78.4994,73.1771 78,78.5C 77.1016,81.0691 75.935,83.4024 74.5,85.5C 74.6816,83.4086 74.3482,81.4086 73.5,79.5C 76.8622,74.6668 77.8622,69.3335 76.5,63.5C 77.6506,59.2336 78.3173,54.9003 78.5,50.5C 77.5,50.5 76.5,50.5 75.5,50.5C 73.9192,48.8583 73.2525,46.8583 73.5,44.5C 73.7828,43.7109 74.2828,43.0442 75,42.5C 76.093,44.3492 77.4263,46.0158 79,47.5C 79.2321,46.2625 79.7321,45.2625 80.5,44.5 Z"/></g>
<g><path style="opacity:1" fill="#557a2a" d="M 78.5,62.5 C 79.4345,63.5676 79.7678,64.901 79.5,66.5C 79.5,69.1667 79.5,71.8333 79.5,74.5C 79.4955,78.5341 79.1621,82.5341 78.5,86.5C 78.4621,88.6361 77.7954,89.9694 76.5,90.5C 74.7868,89.3646 74.1201,87.698 74.5,85.5C 75.935,83.4024 77.1016,81.0691 78,78.5C 78.4994,73.1771 78.666,67.8437 78.5,62.5 Z"/></g>
<g><path style="opacity:1" fill="#3f661e" d="M 89.5,61.5 C 89.8333,61.5 90.1667,61.5 90.5,61.5C 91.1461,70.1517 91.4795,78.8184 91.5,87.5C 91.5,87.8333 91.5,88.1667 91.5,88.5C 91.1667,88.5 90.8333,88.5 90.5,88.5C 90.5,87.5 90.5,86.5 90.5,85.5C 89.5,85.5 88.5,85.5 87.5,85.5C 87.366,83.7085 87.6993,82.0418 88.5,80.5C 89.4902,74.3554 89.8235,68.0221 89.5,61.5 Z"/></g>
<g><path style="opacity:1" fill="#396619" d="M 65.5,61.5 C 63.3758,67.8575 64.7091,73.1908 69.5,77.5C 69.6038,80.0895 68.9371,82.4229 67.5,84.5C 70.1835,88.4466 69.8501,92.1132 66.5,95.5C 65.391,95.4431 64.391,95.1098 63.5,94.5C 63.5,94.1667 63.5,93.8333 63.5,93.5C 63.5,92.1667 63.5,90.8333 63.5,89.5C 63.5,88.8333 63.5,88.1667 63.5,87.5C 64.493,84.2015 65.493,80.8682 66.5,77.5C 64.949,75.6726 63.949,73.506 63.5,71C 63.807,67.6235 64.4737,64.4569 65.5,61.5 Z"/></g>
<g><path style="opacity:1" fill="#758f39" d="M 79.5,74.5 C 80.5,74.5 81.5,74.5 82.5,74.5C 84.5,74.5 86.5,74.5 88.5,74.5C 88.5,76.5 88.5,78.5 88.5,80.5C 84.4965,79.3609 82.1631,81.0275 81.5,85.5C 80.675,86.3857 79.675,86.719 78.5,86.5C 79.1621,82.5341 79.4955,78.5341 79.5,74.5 Z"/></g>
<g><path style="opacity:1" fill="#7ea636" d="M 21.5,54.5 C 23.369,56.6353 24.0356,59.3019 23.5,62.5C 23.5,63.8333 23.5,65.1667 23.5,66.5C 23.5,67.5 23.5,68.5 23.5,69.5C 22.5151,73.6344 22.1818,77.9677 22.5,82.5C 22.6633,84.8568 22.4966,87.1902 22,89.5C 21.1153,86.0477 20.282,82.7144 19.5,79.5C 17.6659,70.825 18.3326,62.4917 21.5,54.5 Z"/></g>
<g><path style="opacity:1" fill="#40711c" d="M 49.5,73.5 C 49.307,77.5662 49.6403,81.5662 50.5,85.5C 48.3881,84.7249 46.3881,84.7249 44.5,85.5C 44.3433,84.1266 44.51,82.7932 45,81.5C 45.6543,82.6956 46.1543,82.6956 46.5,81.5C 45.6906,79.9291 45.3573,78.2624 45.5,76.5C 46.5261,75.147 47.8595,74.147 49.5,73.5 Z"/></g>
<g><path style="opacity:1" fill="#6e952f" d="M 63.5,55.5 C 63.8333,55.5 64.1667,55.5 64.5,55.5C 65.4614,57.2646 65.7947,59.2646 65.5,61.5C 64.4737,64.4569 63.807,67.6235 63.5,71C 63.949,73.506 64.949,75.6726 66.5,77.5C 65.493,80.8682 64.493,84.2015 63.5,87.5C 60.876,87.9232 59.2093,86.5899 58.5,83.5C 58.5,82.1667 58.5,80.8333 58.5,79.5C 60.3904,79.2965 61.8904,79.9632 63,81.5C 63.5564,79.1152 63.3897,76.7819 62.5,74.5C 62.1765,67.9779 62.5098,61.6446 63.5,55.5 Z"/></g>
<g><path style="opacity:1" fill="#1f3218" d="M 98.5,77.5 C 99.8799,77.9623 100.547,78.9623 100.5,80.5C 99.7308,83.1147 99.3975,85.7814 99.5,88.5C 99.5,89.1667 99.5,89.8333 99.5,90.5C 98.596,91.209 98.2627,92.209 98.5,93.5C 97.8333,94.5 97.1667,95.5 96.5,96.5C 95.4901,92.3855 94.4901,88.3855 93.5,84.5C 93.3433,83.1266 93.51,81.7932 94,80.5C 95.3848,79.4495 96.3848,78.1161 97,76.5C 97.3826,77.056 97.8826,77.3893 98.5,77.5 Z"/></g>
<g><path style="opacity:1" fill="#3a6718" d="M 23.5,69.5 C 23.8684,76.0082 24.535,82.3416 25.5,88.5C 26.1667,91.5 26.8333,94.5 27.5,97.5C 24.8236,92.8041 23.1569,87.8041 22.5,82.5C 22.1818,77.9677 22.5151,73.6344 23.5,69.5 Z"/></g>
<g><path style="opacity:1" fill="#7f9f37" d="M 52.5,71.5 C 52.8333,71.5 53.1667,71.5 53.5,71.5C 53.5,72.5 53.5,73.5 53.5,74.5C 56.0772,74.5449 58.0772,73.5449 59.5,71.5C 60.1001,72.9002 61.1001,73.9002 62.5,74.5C 63.3897,76.7819 63.5564,79.1152 63,81.5C 61.8904,79.9632 60.3904,79.2965 58.5,79.5C 58.5,80.8333 58.5,82.1667 58.5,83.5C 57.1805,84.9418 55.5138,85.6085 53.5,85.5C 52.3232,82.6364 51.3232,79.6364 50.5,76.5C 51.1869,74.8228 51.8535,73.1561 52.5,71.5 Z"/></g>
<g><path style="opacity:1" fill="#35511b" d="M 19.5,79.5 C 19.4549,85.3604 20.4549,91.0271 22.5,96.5C 21.5,96.5 20.5,96.5 19.5,96.5C 18.2967,92.8899 17.2967,89.2232 16.5,85.5C 17.3195,82.6946 17.8195,79.6946 18,76.5C 18.2321,77.7375 18.7321,78.7375 19.5,79.5 Z"/></g>
<g><path style="opacity:1" fill="#1e3714" d="M 25.5,75.5 C 25.8333,75.5 26.1667,75.5 26.5,75.5C 26.2741,85.4902 27.9407,95.1569 31.5,104.5C 29.6583,102.81 28.325,100.81 27.5,98.5C 27.5,98.1667 27.5,97.8333 27.5,97.5C 26.8333,94.5 26.1667,91.5 25.5,88.5C 25.5,84.1667 25.5,79.8333 25.5,75.5 Z"/></g>
<g><path style="opacity:1" fill="#789336" d="M 58.5,83.5 C 59.2093,86.5899 60.876,87.9232 63.5,87.5C 63.5,88.1667 63.5,88.8333 63.5,89.5C 56.9079,95.8668 53.5746,94.5335 53.5,85.5C 55.5138,85.6085 57.1805,84.9418 58.5,83.5 Z"/></g>
<g><path style="opacity:1" fill="#637e30" d="M 88.5,80.5 C 87.6993,82.0418 87.366,83.7085 87.5,85.5C 88.5,85.5 89.5,85.5 90.5,85.5C 90.5,86.5 90.5,87.5 90.5,88.5C 89.5342,91.4686 87.8675,93.802 85.5,95.5C 84.1634,96.3149 83.1634,97.4815 82.5,99C 81.2068,99.49 79.8734,99.6567 78.5,99.5C 78.9321,96.1226 78.2655,93.1226 76.5,90.5C 77.7954,89.9694 78.4621,88.6361 78.5,86.5C 79.675,86.719 80.675,86.3857 81.5,85.5C 82.1631,81.0275 84.4965,79.3609 88.5,80.5 Z"/></g>
<g><path style="opacity:1" fill="#475c40" d="M 111.5,73.5 C 112.5,73.5 113.5,73.5 114.5,73.5C 114.833,73.5 115.167,73.5 115.5,73.5C 115.41,76.1522 116.076,78.4855 117.5,80.5C 117.253,85.5667 116.587,90.5667 115.5,95.5C 114.833,97.1667 114.167,98.8333 113.5,100.5C 113.769,98.5714 113.269,96.9047 112,95.5C 111.184,96.8228 110.017,97.4894 108.5,97.5C 110.218,89.6147 111.218,81.6147 111.5,73.5 Z"/></g>
<g><path style="opacity:1" fill="#526f26" d="M 123.5,72.5 C 124.117,72.6107 124.617,72.944 125,73.5C 125.495,75.4727 125.662,77.4727 125.5,79.5C 125.5,80.1667 125.5,80.8333 125.5,81.5C 124.732,82.2625 124.232,83.2625 124,84.5C 123.667,84.1667 123.333,83.8333 123,83.5C 121.181,91.4665 118.014,98.7998 113.5,105.5C 112.614,104.675 112.281,103.675 112.5,102.5C 112.833,101.833 113.167,101.167 113.5,100.5C 114.167,98.8333 114.833,97.1667 115.5,95.5C 116.167,94.1667 116.833,92.8333 117.5,91.5C 117.351,92.552 117.517,93.552 118,94.5C 119.174,90.9542 119.84,87.2875 120,83.5C 123.051,80.5702 124.218,76.9035 123.5,72.5 Z"/></g>
<g><path style="opacity:1" fill="#80a23a" d="M 41.5,63.5 C 42.1667,63.5 42.5,63.8333 42.5,64.5C 42.7244,68.1788 43.0578,71.8455 43.5,75.5C 43.0522,79.5245 42.3855,83.5245 41.5,87.5C 39.5331,88.6816 38.1997,88.0149 37.5,85.5C 36.2528,87.0064 36.2528,88.5064 37.5,90C 37,90.5 36.5,91 36,91.5C 35.0656,90.1416 34.2323,88.8083 33.5,87.5C 33.5,86.1667 33.5,84.8333 33.5,83.5C 34.8249,84.9526 35.6582,84.6192 36,82.5C 37.6667,85.1667 39.3333,85.1667 41,82.5C 40.7446,79.9184 40.578,77.2518 40.5,74.5C 40.5524,70.8019 40.8857,67.1352 41.5,63.5 Z"/></g>
<g><path style="opacity:1" fill="#71962f" d="M 43.5,75.5 C 44.1667,75.8333 44.8333,76.1667 45.5,76.5C 45.3573,78.2624 45.6906,79.9291 46.5,81.5C 46.1543,82.6956 45.6543,82.6956 45,81.5C 44.51,82.7932 44.3433,84.1266 44.5,85.5C 44.5,85.8333 44.5,86.1667 44.5,86.5C 43.6618,86.8417 43.3284,87.5084 43.5,88.5C 42.0269,90.5832 40.8602,92.9165 40,95.5C 39.3333,92.8333 38.6667,92.8333 38,95.5C 37.2917,94.6195 36.4584,93.9528 35.5,93.5C 33.9192,91.8583 33.2525,89.8583 33.5,87.5C 34.2323,88.8083 35.0656,90.1416 36,91.5C 36.5,91 37,90.5 37.5,90C 36.2528,88.5064 36.2528,87.0064 37.5,85.5C 38.1997,88.0149 39.5331,88.6816 41.5,87.5C 42.3855,83.5245 43.0522,79.5245 43.5,75.5 Z"/></g>
<g><path style="opacity:1" fill="#234215" d="M 27.5,75.5 C 28.1667,75.5 28.8333,75.5 29.5,75.5C 31.1554,83.0987 32.4888,90.7654 33.5,98.5C 31.7662,96.9096 30.5995,94.9096 30,92.5C 28.6531,86.9047 27.8197,81.238 27.5,75.5 Z"/></g>
<g><path style="opacity:1" fill="#708948" d="M 108.5,82.5 C 108.495,86.5341 108.162,90.5341 107.5,94.5C 106.504,94.4142 105.671,94.7476 105,95.5C 104.333,90.1667 104.333,84.8333 105,79.5C 105.414,79.0426 105.914,78.7093 106.5,78.5C 107.172,79.9492 107.839,81.2825 108.5,82.5 Z"/></g>
<g><path style="opacity:1" fill="#162a10" d="M 93.5,84.5 C 94.4901,88.3855 95.4901,92.3855 96.5,96.5C 96.8016,99.0593 96.4682,101.393 95.5,103.5C 95.6621,101.473 95.4955,99.4727 95,97.5C 94.6667,98.8333 94.3333,100.167 94,101.5C 93.6924,100.692 93.1924,100.025 92.5,99.5C 91.5832,100.127 90.5832,100.461 89.5,100.5C 91.0265,96.9219 92.3599,93.2552 93.5,89.5C 93.5,87.8333 93.5,86.1667 93.5,84.5 Z"/></g>
<g><path style="opacity:1" fill="#657e3c" d="M 102.5,73.5 C 104.5,73.5 106.5,73.5 108.5,73.5C 108.5,76.5 108.5,79.5 108.5,82.5C 107.839,81.2825 107.172,79.9492 106.5,78.5C 105.914,78.7093 105.414,79.0426 105,79.5C 104.333,84.8333 104.333,90.1667 105,95.5C 105.671,94.7476 106.504,94.4142 107.5,94.5C 107.167,95.8333 106.833,97.1667 106.5,98.5C 104.865,99.8146 103.199,99.8146 101.5,98.5C 100.451,95.9205 99.7845,93.2538 99.5,90.5C 99.5,89.8333 99.5,89.1667 99.5,88.5C 101.173,87.657 102.34,86.3237 103,84.5C 103.755,80.7446 103.589,77.0779 102.5,73.5 Z"/></g>
<g><path style="opacity:1" fill="#18300e" d="M 51.5,101.5 C 51.4451,104.209 50.7784,106.209 49.5,107.5C 50.5,107.5 51.5,107.5 52.5,107.5C 52.5,109.167 52.5,110.833 52.5,112.5C 50.5212,111.188 48.8545,109.521 47.5,107.5C 47.0951,102.473 46.4285,97.473 45.5,92.5C 44.8917,89.019 46.2251,87.019 49.5,86.5C 49.1828,91.6759 49.8495,96.6759 51.5,101.5 Z"/></g>
<g><path style="opacity:1" fill="#2e4514" d="M 125.5,81.5 C 124.407,90.6125 121.24,98.9459 116,106.5C 112.624,111.377 108.457,115.377 103.5,118.5C 101.972,118.483 101.472,117.816 102,116.5C 105.764,111.944 109.264,107.277 112.5,102.5C 112.281,103.675 112.614,104.675 113.5,105.5C 118.014,98.7998 121.181,91.4665 123,83.5C 123.333,83.8333 123.667,84.1667 124,84.5C 124.232,83.2625 124.732,82.2625 125.5,81.5 Z"/></g>
<g><path style="opacity:1" fill="#6b8b33" d="M 19.5,79.5 C 20.282,82.7144 21.1153,86.0477 22,89.5C 22.4966,87.1902 22.6633,84.8568 22.5,82.5C 23.1569,87.8041 24.8236,92.8041 27.5,97.5C 27.5,97.8333 27.5,98.1667 27.5,98.5C 27.6567,99.8734 27.49,101.207 27,102.5C 26.5831,101.244 25.7498,100.577 24.5,100.5C 23.8333,99.1667 23.1667,97.8333 22.5,96.5C 20.4549,91.0271 19.4549,85.3604 19.5,79.5 Z"/></g>
<g><path style="opacity:1" fill="#4c6c3c" d="M 110.5,71.5 C 110.833,71.5 111.167,71.5 111.5,71.5C 111.5,72.1667 111.5,72.8333 111.5,73.5C 111.218,81.6147 110.218,89.6147 108.5,97.5C 108.204,99.403 107.537,101.07 106.5,102.5C 106.5,101.167 106.5,99.8333 106.5,98.5C 106.833,97.1667 107.167,95.8333 107.5,94.5C 108.162,90.5341 108.495,86.5341 108.5,82.5C 108.5,79.5 108.5,76.5 108.5,73.5C 108.833,73.5 109.167,73.5 109.5,73.5C 110.338,73.1583 110.672,72.4916 110.5,71.5 Z"/></g>
<g><path style="opacity:1" fill="#65862c" d="M 52.5,71.5 C 51.8535,73.1561 51.1869,74.8228 50.5,76.5C 51.3232,79.6364 52.3232,82.6364 53.5,85.5C 53.5746,94.5335 56.9079,95.8668 63.5,89.5C 63.5,90.8333 63.5,92.1667 63.5,93.5C 62.0735,95.1484 61.2401,97.1484 61,99.5C 59.6667,100.833 58.3333,100.833 57,99.5C 56.6411,102.544 55.9745,102.878 55,100.5C 54.6667,100.833 54.3333,101.167 54,101.5C 52.8512,98.6074 52.3512,95.6074 52.5,92.5C 52.6621,90.4727 52.4955,88.4727 52,86.5C 51.6174,85.944 51.1174,85.6107 50.5,85.5C 49.6403,81.5662 49.307,77.5662 49.5,73.5C 50.5,72.8333 51.5,72.1667 52.5,71.5 Z"/></g>
<g><path style="opacity:0.941" fill="#213510" d="M 19.5,96.5 C 20.5,96.5 21.5,96.5 22.5,96.5C 23.1667,97.8333 23.8333,99.1667 24.5,100.5C 26.845,104.528 29.1783,108.528 31.5,112.5C 26.5385,107.921 22.5385,102.587 19.5,96.5 Z"/></g>
<g><path style="opacity:1" fill="#4e7821" d="M 33.5,53.5 C 31.9039,58.6397 30.9039,63.973 30.5,69.5C 30.5,70.8333 30.5,72.1667 30.5,73.5C 30.3952,77.2583 31.3952,80.5917 33.5,83.5C 33.5,84.8333 33.5,86.1667 33.5,87.5C 33.2525,89.8583 33.9192,91.8583 35.5,93.5C 36.299,96.4299 36.6323,99.4299 36.5,102.5C 36.1667,102.5 35.8333,102.5 35.5,102.5C 35.1667,101.5 34.5,100.833 33.5,100.5C 33.5,99.8333 33.5,99.1667 33.5,98.5C 32.4888,90.7654 31.1554,83.0987 29.5,75.5C 29.7888,68.8223 30.2888,62.1556 31,55.5C 31.7083,54.6195 32.5416,53.9528 33.5,53.5 Z"/></g>
<g><path style="opacity:1" fill="#65862a" d="M 43.5,88.5 C 42.6403,92.4338 42.307,96.4338 42.5,100.5C 41.5,100.5 40.5,100.5 39.5,100.5C 39.6495,101.552 39.4828,102.552 39,103.5C 38.3292,102.748 37.4959,102.414 36.5,102.5C 36.6323,99.4299 36.299,96.4299 35.5,93.5C 36.4584,93.9528 37.2917,94.6195 38,95.5C 38.6667,92.8333 39.3333,92.8333 40,95.5C 40.8602,92.9165 42.0269,90.5832 43.5,88.5 Z"/></g>
<g><path style="opacity:1" fill="#587724" d="M 52.5,92.5 C 52.3512,95.6074 52.8512,98.6074 54,101.5C 54.3333,101.167 54.6667,100.833 55,100.5C 55.9745,102.878 56.6411,102.544 57,99.5C 58.3333,100.833 59.6667,100.833 61,99.5C 61.2401,97.1484 62.0735,95.1484 63.5,93.5C 63.5,93.8333 63.5,94.1667 63.5,94.5C 63.4208,95.9305 63.7542,97.2638 64.5,98.5C 62.0217,99.7224 61.0217,101.722 61.5,104.5C 59.8014,104.62 58.1347,104.954 56.5,105.5C 54.5567,105.213 53.2233,104.213 52.5,102.5C 52.5,102.167 52.5,101.833 52.5,101.5C 51.3187,98.3623 51.3187,95.3623 52.5,92.5 Z"/></g>
<g><path style="opacity:1" fill="#152a0c" d="M 73.5,88.5 C 73.5,90.5 73.5,92.5 73.5,94.5C 72.8442,95.6216 72.5108,96.9549 72.5,98.5C 74.237,106.74 74.9037,115.073 74.5,123.5C 74.4877,126.142 75.821,127.475 78.5,127.5C 78.1667,128.167 77.8333,128.833 77.5,129.5C 76.8333,129.5 76.1667,129.5 75.5,129.5C 74.5,129.5 73.5,129.5 72.5,129.5C 73.5985,121.829 73.5985,114.162 72.5,106.5C 69.1558,110.509 67.4892,115.176 67.5,120.5C 66.5318,118.393 66.1984,116.059 66.5,113.5C 67.4515,111.597 68.4515,109.597 69.5,107.5C 68.9469,104.865 68.6136,102.199 68.5,99.5C 69.6026,94.5439 70.2692,89.5439 70.5,84.5C 71.2216,84.0825 71.7216,83.4158 72,82.5C 72.1909,84.7078 72.6909,86.7078 73.5,88.5 Z"/></g>
<g><path style="opacity:1" fill="#12230a" d="M 95.5,103.5 C 92.6445,111.2 89.3111,118.533 85.5,125.5C 86.325,126.386 87.325,126.719 88.5,126.5C 85.1456,128.258 81.479,129.258 77.5,129.5C 77.8333,128.833 78.1667,128.167 78.5,127.5C 81.3253,123.694 84.3253,120.027 87.5,116.5C 88.5514,111.354 89.2181,106.021 89.5,100.5C 90.5832,100.461 91.5832,100.127 92.5,99.5C 93.1924,100.025 93.6924,100.692 94,101.5C 94.3333,100.167 94.6667,98.8333 95,97.5C 95.4955,99.4727 95.6621,101.473 95.5,103.5 Z"/></g>
<g><path style="opacity:1" fill="#526a28" d="M 76.5,90.5 C 78.2655,93.1226 78.9321,96.1226 78.5,99.5C 79.8734,99.6567 81.2068,99.49 82.5,99C 83.1634,97.4815 84.1634,96.3149 85.5,95.5C 86.311,101.305 85.4777,106.971 83,112.5C 82.6667,109.5 82.3333,106.5 82,103.5C 81.6322,104.91 80.7989,105.91 79.5,106.5C 78.8281,105.051 78.1614,103.718 77.5,102.5C 77.1667,98.5 76.8333,94.5 76.5,90.5 Z"/></g>
<g><path style="opacity:1" fill="#4d6725" d="M 27.5,98.5 C 28.325,100.81 29.6583,102.81 31.5,104.5C 31.9255,107.119 32.9255,109.453 34.5,111.5C 34.631,112.239 34.4643,112.906 34,113.5C 33.3292,112.748 32.4959,112.414 31.5,112.5C 29.1783,108.528 26.845,104.528 24.5,100.5C 25.7498,100.577 26.5831,101.244 27,102.5C 27.49,101.207 27.6567,99.8734 27.5,98.5 Z"/></g>
<g><path style="opacity:1" fill="#274d11" d="M 50.5,85.5 C 51.1174,85.6107 51.6174,85.944 52,86.5C 52.4955,88.4727 52.6621,90.4727 52.5,92.5C 51.3187,95.3623 51.3187,98.3623 52.5,101.5C 52.1667,101.5 51.8333,101.5 51.5,101.5C 49.8495,96.6759 49.1828,91.6759 49.5,86.5C 46.2251,87.019 44.8917,89.019 45.5,92.5C 46.4285,97.473 47.0951,102.473 47.5,107.5C 46.8902,108.391 46.5569,109.391 46.5,110.5C 46.1667,110.5 45.8333,110.5 45.5,110.5C 44.5328,102.586 44.1995,94.5856 44.5,86.5C 44.5,86.1667 44.5,85.8333 44.5,85.5C 46.3881,84.7249 48.3881,84.7249 50.5,85.5 Z"/></g>
<g><path style="opacity:1" fill="#47651c" d="M 63.5,94.5 C 64.391,95.1098 65.391,95.4431 66.5,95.5C 65.046,101.369 64.3793,107.369 64.5,113.5C 62.5185,114.348 60.5185,114.848 58.5,115C 58.12,112.674 57.12,110.841 55.5,109.5C 53.7162,107.59 52.7162,105.256 52.5,102.5C 53.2233,104.213 54.5567,105.213 56.5,105.5C 58.1347,104.954 59.8014,104.62 61.5,104.5C 61.0217,101.722 62.0217,99.7224 64.5,98.5C 63.7542,97.2638 63.4208,95.9305 63.5,94.5 Z"/></g>
<g><path style="opacity:1" fill="#1d390e" d="M 91.5,87.5 C 91.8333,87.5 92.1667,87.5 92.5,87.5C 92.3284,88.4916 92.6618,89.1583 93.5,89.5C 92.3599,93.2552 91.0265,96.9219 89.5,100.5C 89.2181,106.021 88.5514,111.354 87.5,116.5C 86.8505,114.565 86.5172,112.565 86.5,110.5C 87.7279,103.167 89.3946,95.8339 91.5,88.5C 91.5,88.1667 91.5,87.8333 91.5,87.5 Z"/></g>
<g><path style="opacity:1" fill="#546c2b" d="M 99.5,90.5 C 99.7845,93.2538 100.451,95.9205 101.5,98.5C 103.199,99.8146 104.865,99.8146 106.5,98.5C 106.5,99.8333 106.5,101.167 106.5,102.5C 105.167,105.5 103.833,108.5 102.5,111.5C 101.069,111.119 100.236,110.119 100,108.5C 99.6667,108.833 99.3333,109.167 99,109.5C 98.5034,107.19 98.3367,104.857 98.5,102.5C 98.5,99.5 98.5,96.5 98.5,93.5C 98.2627,92.209 98.596,91.209 99.5,90.5 Z"/></g>
<g><path style="opacity:1" fill="#0c1b07" d="M 75.5,129.5 C 72.1667,130.833 68.8333,130.833 65.5,129.5C 66.8333,129.5 68.1667,129.5 69.5,129.5C 69.3573,127.738 69.6906,126.071 70.5,124.5C 70.0431,123.702 69.3764,123.369 68.5,123.5C 67.8902,122.609 67.5569,121.609 67.5,120.5C 67.4892,115.176 69.1558,110.509 72.5,106.5C 73.5985,114.162 73.5985,121.829 72.5,129.5C 73.5,129.5 74.5,129.5 75.5,129.5 Z"/></g>
<g><path style="opacity:1" fill="#47681c" d="M 44.5,86.5 C 44.1995,94.5856 44.5328,102.586 45.5,110.5C 45.5,111.5 45.5,112.5 45.5,113.5C 43.1727,113.753 41.1727,113.086 39.5,111.5C 38.1412,108.486 36.8079,105.486 35.5,102.5C 35.8333,102.5 36.1667,102.5 36.5,102.5C 37.4959,102.414 38.3292,102.748 39,103.5C 39.4828,102.552 39.6495,101.552 39.5,100.5C 40.5,100.5 41.5,100.5 42.5,100.5C 42.307,96.4338 42.6403,92.4338 43.5,88.5C 43.3284,87.5084 43.6618,86.8417 44.5,86.5 Z"/></g>
<g><path style="opacity:1" fill="#23440f" d="M 69.5,77.5 C 70.4682,79.6074 70.8016,81.9407 70.5,84.5C 70.2692,89.5439 69.6026,94.5439 68.5,99.5C 68.6136,102.199 68.9469,104.865 69.5,107.5C 68.4515,109.597 67.4515,111.597 66.5,113.5C 65.8333,113.5 65.1667,113.5 64.5,113.5C 64.3793,107.369 65.046,101.369 66.5,95.5C 69.8501,92.1132 70.1835,88.4466 67.5,84.5C 68.9371,82.4229 69.6038,80.0895 69.5,77.5 Z"/></g>
<g><path style="opacity:1" fill="#455e22" d="M 90.5,88.5 C 90.8333,88.5 91.1667,88.5 91.5,88.5C 89.3946,95.8339 87.7279,103.167 86.5,110.5C 84.8205,111.782 83.4871,113.449 82.5,115.5C 81.1779,115.33 80.0113,115.663 79,116.5C 78.2917,115.619 77.4584,114.953 76.5,114.5C 75.8761,114.083 75.5427,113.416 75.5,112.5C 77.0259,109.346 77.6925,106.013 77.5,102.5C 78.1614,103.718 78.8281,105.051 79.5,106.5C 80.7989,105.91 81.6322,104.91 82,103.5C 82.3333,106.5 82.6667,109.5 83,112.5C 85.4777,106.971 86.311,101.305 85.5,95.5C 87.8675,93.802 89.5342,91.4686 90.5,88.5 Z"/></g>
<g><path style="opacity:1" fill="#223e0e" d="M 51.5,101.5 C 51.8333,101.5 52.1667,101.5 52.5,101.5C 52.5,101.833 52.5,102.167 52.5,102.5C 52.7162,105.256 53.7162,107.59 55.5,109.5C 56.5353,111.205 56.5353,112.872 55.5,114.5C 56.961,116.517 58.2943,118.517 59.5,120.5C 59.1667,120.5 58.8333,120.5 58.5,120.5C 57.713,118.896 56.3797,118.229 54.5,118.5C 54.2964,116.315 53.6298,114.315 52.5,112.5C 52.5,110.833 52.5,109.167 52.5,107.5C 51.5,107.5 50.5,107.5 49.5,107.5C 50.7784,106.209 51.4451,104.209 51.5,101.5 Z"/></g>
<g><path style="opacity:1" fill="#486123" d="M 98.5,102.5 C 98.3367,104.857 98.5034,107.19 99,109.5C 99.3333,109.167 99.6667,108.833 100,108.5C 100.236,110.119 101.069,111.119 102.5,111.5C 101.581,114.089 99.914,116.089 97.5,117.5C 96.0222,117.762 94.6888,117.429 93.5,116.5C 94.6865,111.501 96.3532,106.834 98.5,102.5 Z"/></g>
<g><path style="opacity:1" fill="#192415" d="M 26.5,75.5 C 26.8333,75.5 27.1667,75.5 27.5,75.5C 27.8197,81.238 28.6531,86.9047 30,92.5C 30.5995,94.9096 31.7662,96.9096 33.5,98.5C 33.5,99.1667 33.5,99.8333 33.5,100.5C 34.7256,107.391 37.7256,113.391 42.5,118.5C 42.0954,119.55 41.4288,119.55 40.5,118.5C 38.448,116.122 36.448,113.789 34.5,111.5C 32.9255,109.453 31.9255,107.119 31.5,104.5C 27.9407,95.1569 26.2741,85.4902 26.5,75.5 Z"/></g>
<g><path style="opacity:1" fill="#1d370c" d="M 47.5,107.5 C 48.8545,109.521 50.5212,111.188 52.5,112.5C 53.6298,114.315 54.2964,116.315 54.5,118.5C 56.3797,118.229 57.713,118.896 58.5,120.5C 55.9556,120.896 53.7889,120.229 52,118.5C 51.6012,118.728 51.4346,119.062 51.5,119.5C 48.5947,117.244 46.928,114.244 46.5,110.5C 46.5569,109.391 46.8902,108.391 47.5,107.5 Z"/></g>
<g><path style="opacity:1" fill="#243d12" d="M 73.5,94.5 C 75.5967,96.1531 76.9301,98.8198 77.5,102.5C 77.6925,106.013 77.0259,109.346 75.5,112.5C 75.5427,113.416 75.8761,114.083 76.5,114.5C 76.1667,116.5 75.8333,118.5 75.5,120.5C 75.7373,121.791 75.404,122.791 74.5,123.5C 74.9037,115.073 74.237,106.74 72.5,98.5C 72.5108,96.9549 72.8442,95.6216 73.5,94.5 Z"/></g>
<g><path style="opacity:1" fill="#1f2e16" d="M 113.5,100.5 C 113.167,101.167 112.833,101.833 112.5,102.5C 109.264,107.277 105.764,111.944 102,116.5C 101.472,117.816 101.972,118.483 103.5,118.5C 99.4885,122.177 94.8219,124.843 89.5,126.5C 92.2115,123.492 94.8782,120.492 97.5,117.5C 99.914,116.089 101.581,114.089 102.5,111.5C 103.833,108.5 105.167,105.5 106.5,102.5C 107.537,101.07 108.204,99.403 108.5,97.5C 110.017,97.4894 111.184,96.8228 112,95.5C 113.269,96.9047 113.769,98.5714 113.5,100.5 Z"/></g>
<g><path style="opacity:1" fill="#3f551e" d="M 76.5,114.5 C 77.4584,114.953 78.2917,115.619 79,116.5C 80.0113,115.663 81.1779,115.33 82.5,115.5C 82.4249,118.206 82.0916,120.873 81.5,123.5C 79.8561,123.286 78.3561,123.62 77,124.5C 76.79,122.942 76.29,121.609 75.5,120.5C 75.8333,118.5 76.1667,116.5 76.5,114.5 Z"/></g>
<g><path style="opacity:1" fill="#324c15" d="M 86.5,110.5 C 86.5172,112.565 86.8505,114.565 87.5,116.5C 84.3253,120.027 81.3253,123.694 78.5,127.5C 75.821,127.475 74.4877,126.142 74.5,123.5C 75.404,122.791 75.7373,121.791 75.5,120.5C 76.29,121.609 76.79,122.942 77,124.5C 78.3561,123.62 79.8561,123.286 81.5,123.5C 82.0916,120.873 82.4249,118.206 82.5,115.5C 83.4871,113.449 84.8205,111.782 86.5,110.5 Z"/></g>
<g><path style="opacity:1" fill="#364e19" d="M 33.5,100.5 C 34.5,100.833 35.1667,101.5 35.5,102.5C 36.8079,105.486 38.1412,108.486 39.5,111.5C 41.1727,113.086 43.1727,113.753 45.5,113.5C 45.5,112.5 45.5,111.5 45.5,110.5C 45.8333,110.5 46.1667,110.5 46.5,110.5C 46.928,114.244 48.5947,117.244 51.5,119.5C 52.5678,122.075 54.2345,124.242 56.5,126C 55.552,126.483 54.552,126.649 53.5,126.5C 53.1667,126.5 52.8333,126.5 52.5,126.5C 48.9026,124.244 45.5693,121.577 42.5,118.5C 37.7256,113.391 34.7256,107.391 33.5,100.5 Z"/></g>
<g><path style="opacity:1" fill="#243e11" d="M 98.5,93.5 C 98.5,96.5 98.5,99.5 98.5,102.5C 96.3532,106.834 94.6865,111.501 93.5,116.5C 94.6888,117.429 96.0222,117.762 97.5,117.5C 94.8782,120.492 92.2115,123.492 89.5,126.5C 89.1667,126.5 88.8333,126.5 88.5,126.5C 87.325,126.719 86.325,126.386 85.5,125.5C 89.3111,118.533 92.6445,111.2 95.5,103.5C 96.4682,101.393 96.8016,99.0593 96.5,96.5C 97.1667,95.5 97.8333,94.5 98.5,93.5 Z"/></g>
<g><path style="opacity:1" fill="#324a14" d="M 55.5,109.5 C 57.12,110.841 58.12,112.674 58.5,115C 60.5185,114.848 62.5185,114.348 64.5,113.5C 64.0632,116.807 64.7298,119.807 66.5,122.5C 64.8669,124.739 62.8669,125.072 60.5,123.5C 60.4431,122.391 60.1098,121.391 59.5,120.5C 58.2943,118.517 56.961,116.517 55.5,114.5C 56.5353,112.872 56.5353,111.205 55.5,109.5 Z"/></g>
<g><path style="opacity:0.782" fill="#19280c" d="M 34.5,111.5 C 36.448,113.789 38.448,116.122 40.5,118.5C 41.4288,119.55 42.0954,119.55 42.5,118.5C 45.5693,121.577 48.9026,124.244 52.5,126.5C 44.321,123.579 37.321,118.912 31.5,112.5C 32.4959,112.414 33.3292,112.748 34,113.5C 34.4643,112.906 34.631,112.239 34.5,111.5 Z"/></g>
<g><path style="opacity:1" fill="#273a14" d="M 64.5,113.5 C 65.1667,113.5 65.8333,113.5 66.5,113.5C 66.1984,116.059 66.5318,118.393 67.5,120.5C 67.5569,121.609 67.8902,122.609 68.5,123.5C 68.1206,128.059 65.7872,129.393 61.5,127.5C 60.5713,126.311 60.238,124.978 60.5,123.5C 62.8669,125.072 64.8669,124.739 66.5,122.5C 64.7298,119.807 64.0632,116.807 64.5,113.5 Z"/></g>
<g><path style="opacity:0.763" fill="#192a0b" d="M 58.5,120.5 C 58.8333,120.5 59.1667,120.5 59.5,120.5C 60.1098,121.391 60.4431,122.391 60.5,123.5C 60.238,124.978 60.5713,126.311 61.5,127.5C 65.7872,129.393 68.1206,128.059 68.5,123.5C 69.3764,123.369 70.0431,123.702 70.5,124.5C 69.6906,126.071 69.3573,127.738 69.5,129.5C 68.1667,129.5 66.8333,129.5 65.5,129.5C 61.0981,129.692 57.0981,128.692 53.5,126.5C 54.552,126.649 55.552,126.483 56.5,126C 54.2345,124.242 52.5678,122.075 51.5,119.5C 51.4346,119.062 51.6012,118.728 52,118.5C 53.7889,120.229 55.9556,120.896 58.5,120.5 Z"/></g>
</svg>
